<svg width="22" height="22" viewBox="0 0 22 22" fill="none" xmlns="http://www.w3.org/2000/svg">
<path fill-rule="evenodd" clip-rule="evenodd" d="M18.8496 10.5047C18.9459 10.6011 19 10.7318 19 10.8681C19 11.0044 18.9459 11.1351 18.8496 11.2316L14.7351 15.346C14.6881 15.3966 14.6313 15.4371 14.5682 15.4652C14.5051 15.4933 14.437 15.5084 14.3679 15.5096C14.2989 15.5108 14.2303 15.4981 14.1663 15.4723C14.1022 15.4464 14.044 15.4079 13.9952 15.3591C13.9464 15.3102 13.9079 15.2521 13.882 15.188C13.8561 15.124 13.8434 15.0554 13.8447 14.9863C13.8459 14.9173 13.861 14.8492 13.8891 14.7861C13.9172 14.723 13.9577 14.6662 14.0083 14.6191L17.245 11.3824L7.51431 11.3824C7.3779 11.3824 7.24709 11.3283 7.15064 11.2318C7.05418 11.1354 7 11.0045 7 10.8681C7 10.7317 7.05418 10.6009 7.15064 10.5045C7.24709 10.408 7.3779 10.3538 7.51431 10.3538L17.245 10.3538L14.0083 7.11714C13.9577 7.07006 13.9172 7.01328 13.8891 6.95019C13.861 6.8871 13.8459 6.819 13.8447 6.74994C13.8434 6.68089 13.8561 6.61229 13.882 6.54825C13.9079 6.48421 13.9464 6.42604 13.9952 6.3772C14.044 6.32836 14.1022 6.28986 14.1663 6.26399C14.2303 6.23813 14.2989 6.22542 14.3679 6.22664C14.437 6.22786 14.5051 6.24298 14.5682 6.27109C14.6313 6.2992 14.6881 6.33972 14.7351 6.39025L18.8496 10.5047Z" fill="white"/>
</svg>
