<svg width="272" height="274" viewBox="0 0 272 274" fill="none" xmlns="http://www.w3.org/2000/svg">
<path d="M203.435 137.561C240.886 137.561 271.246 167.921 271.246 205.372C271.246 242.823 240.886 273.184 203.435 273.184C165.983 273.183 135.623 242.823 135.623 205.372C135.623 194.78 138.053 184.755 142.384 175.823C159.186 173.19 172.534 160.15 175.63 143.505C184.115 139.686 193.526 137.561 203.435 137.561ZM67.8115 135.623C77.995 135.623 87.6542 137.868 96.3213 141.89C98.8251 159.276 112.452 173.064 129.758 175.811C133.526 184.248 135.623 193.596 135.623 203.435C135.623 240.886 105.263 271.246 67.8115 271.246C30.3602 271.246 0 240.886 0 203.435C0.000169504 165.983 30.3603 135.623 67.8115 135.623ZM203.435 1.9375C240.886 1.9375 271.246 32.2977 271.246 69.749C271.246 107.2 240.886 137.561 203.435 137.561C193.702 137.561 184.449 135.509 176.082 131.816C174.11 113.234 159.479 98.4331 140.976 96.2002C137.529 88.0725 135.623 79.1333 135.623 69.749C135.623 32.2978 165.983 1.93764 203.435 1.9375ZM67.8115 0C105.263 0 135.623 30.3602 135.623 67.8115C135.623 78.0598 133.349 87.7768 129.279 96.4863C112.549 99.3496 99.3496 112.549 96.4863 129.279C87.7768 133.349 78.0598 135.623 67.8115 135.623C30.3602 135.623 0 105.263 0 67.8115C5.65016e-05 30.3603 30.3602 2.18392e-05 67.8115 0Z" fill="white"/>
</svg>
