<svg width="326" height="382" viewBox="0 0 326 382" fill="none" xmlns="http://www.w3.org/2000/svg">
<path d="M14.0137 379.805V380H2.24609V379.805C3.15755 377.754 3.75977 375.654 4.05273 373.506C4.37826 371.325 4.54102 368.428 4.54102 364.814V346.016C4.54102 341.882 3.02734 338.48 0 335.811V335.615L11.4258 330.293V339.717L11.8164 339.814C13.7044 336.982 15.9831 334.785 18.6523 333.223C21.3542 331.66 24.3164 330.879 27.5391 330.879C33.9193 330.879 37.7116 333.857 38.916 339.814L39.209 339.912C43.4733 333.89 48.7467 330.879 55.0293 330.879C62.8418 330.879 66.748 335.387 66.748 344.404V364.717C66.748 368.59 66.8783 371.569 67.1387 373.652C67.3991 375.736 68.0013 377.786 68.9453 379.805V380H57.2266V379.805C58.0729 377.754 58.6426 375.605 58.9355 373.359C59.2611 371.113 59.4238 368.265 59.4238 364.814V346.016C59.4238 344.518 59.2936 343.2 59.0332 342.061C58.8053 340.921 58.3984 339.863 57.8125 338.887C57.2591 337.878 56.429 337.113 55.3223 336.592C54.2155 336.071 52.8483 335.811 51.2207 335.811C46.5332 335.811 42.5293 337.878 39.209 342.012V364.717C39.209 368.59 39.3392 371.569 39.5996 373.652C39.8926 375.736 40.5273 377.786 41.5039 379.805V380H29.7363V379.805C30.6152 377.786 31.2012 375.687 31.4941 373.506C31.7871 371.292 31.9336 368.395 31.9336 364.814V346.016C31.9336 344.518 31.8197 343.2 31.5918 342.061C31.3639 340.921 30.957 339.863 30.3711 338.887C29.8177 337.878 28.9714 337.113 27.832 336.592C26.7253 336.071 25.3581 335.811 23.7305 335.811C18.9453 335.811 14.974 337.845 11.8164 341.914V364.717C11.8164 368.525 11.9466 371.504 12.207 373.652C12.4674 375.768 13.0697 377.819 14.0137 379.805Z" fill="#1E1E1E"/>
<path d="M114.307 378.145C110.433 380.391 106.25 381.514 101.758 381.514C97.2656 381.514 93.0827 380.391 89.209 378.145C85.3678 375.866 82.3079 372.79 80.0293 368.916C77.7832 365.042 76.6602 360.843 76.6602 356.318C76.6927 352.933 77.3763 349.678 78.7109 346.553C80.0781 343.395 81.8848 340.677 84.1309 338.398C86.377 336.12 89.0299 334.297 92.0898 332.93C95.1823 331.562 98.4049 330.879 101.758 330.879C105.111 330.879 108.333 331.562 111.426 332.93C114.551 334.297 117.236 336.12 119.482 338.398C121.729 340.677 123.519 343.395 124.854 346.553C126.221 349.678 126.904 352.933 126.904 356.318C126.904 360.843 125.765 365.042 123.486 368.916C121.24 372.79 118.18 375.866 114.307 378.145ZM101.758 379.609C105.371 379.609 108.464 378.519 111.035 376.338C113.639 374.157 115.527 371.357 116.699 367.939C117.904 364.489 118.506 360.615 118.506 356.318C118.506 351.989 117.904 348.083 116.699 344.6C115.495 341.117 113.59 338.285 110.986 336.104C108.415 333.89 105.339 332.783 101.758 332.783C99.056 332.783 96.6146 333.418 94.4336 334.688C92.2852 335.957 90.5273 337.682 89.1602 339.863C87.8255 342.012 86.8001 344.502 86.084 347.334C85.4004 350.133 85.0586 353.128 85.0586 356.318C85.0586 359.508 85.4004 362.487 86.084 365.254C86.8001 368.021 87.8255 370.495 89.1602 372.676C90.4948 374.824 92.2363 376.517 94.3848 377.754C96.5658 378.991 99.0234 379.609 101.758 379.609Z" fill="#1E1E1E"/>
<path d="M135.156 380V379.805C136.068 377.721 136.654 375.605 136.914 373.457C137.207 371.309 137.354 368.363 137.354 364.619V345.918C137.354 341.816 135.872 338.48 132.91 335.908V335.713L144.238 330.391V342.5L144.727 342.598C145.182 342.109 146.045 341.133 147.314 339.668C148.584 338.203 149.593 337.096 150.342 336.348C151.123 335.599 152.116 334.736 153.32 333.76C154.525 332.751 155.729 332.018 156.934 331.562C158.171 331.107 159.44 330.879 160.742 330.879L160.645 340.791H160.352C159.57 340.238 158.333 339.733 156.641 339.277C154.948 338.822 153.516 338.594 152.344 338.594C151.497 338.594 150.326 339.196 148.828 340.4C147.363 341.572 145.964 343.037 144.629 344.795V364.521C144.629 368.363 144.759 371.357 145.02 373.506C145.28 375.654 145.882 377.754 146.826 379.805V380H135.156Z" fill="#1E1E1E"/>
<path d="M168.75 380V379.805C169.661 377.721 170.247 375.605 170.508 373.457C170.801 371.309 170.947 368.363 170.947 364.619V345.918C170.947 341.816 169.466 338.48 166.504 335.908V335.713L177.832 330.391V342.5L178.32 342.598C178.776 342.109 179.639 341.133 180.908 339.668C182.178 338.203 183.187 337.096 183.936 336.348C184.717 335.599 185.71 334.736 186.914 333.76C188.118 332.751 189.323 332.018 190.527 331.562C191.764 331.107 193.034 330.879 194.336 330.879L194.238 340.791H193.945C193.164 340.238 191.927 339.733 190.234 339.277C188.542 338.822 187.109 338.594 185.938 338.594C185.091 338.594 183.919 339.196 182.422 340.4C180.957 341.572 179.557 343.037 178.223 344.795V364.521C178.223 368.363 178.353 371.357 178.613 373.506C178.874 375.654 179.476 377.754 180.42 379.805V380H168.75Z" fill="#1E1E1E"/>
<path d="M236.182 378.145C232.308 380.391 228.125 381.514 223.633 381.514C219.141 381.514 214.958 380.391 211.084 378.145C207.243 375.866 204.183 372.79 201.904 368.916C199.658 365.042 198.535 360.843 198.535 356.318C198.568 352.933 199.251 349.678 200.586 346.553C201.953 343.395 203.76 340.677 206.006 338.398C208.252 336.12 210.905 334.297 213.965 332.93C217.057 331.562 220.28 330.879 223.633 330.879C226.986 330.879 230.208 331.562 233.301 332.93C236.426 334.297 239.111 336.12 241.357 338.398C243.604 340.677 245.394 343.395 246.729 346.553C248.096 349.678 248.779 352.933 248.779 356.318C248.779 360.843 247.64 365.042 245.361 368.916C243.115 372.79 240.055 375.866 236.182 378.145ZM223.633 379.609C227.246 379.609 230.339 378.519 232.91 376.338C235.514 374.157 237.402 371.357 238.574 367.939C239.779 364.489 240.381 360.615 240.381 356.318C240.381 351.989 239.779 348.083 238.574 344.6C237.37 341.117 235.465 338.285 232.861 336.104C230.29 333.89 227.214 332.783 223.633 332.783C220.931 332.783 218.49 333.418 216.309 334.688C214.16 335.957 212.402 337.682 211.035 339.863C209.701 342.012 208.675 344.502 207.959 347.334C207.275 350.133 206.934 353.128 206.934 356.318C206.934 359.508 207.275 362.487 207.959 365.254C208.675 368.021 209.701 370.495 211.035 372.676C212.37 374.824 214.111 376.517 216.26 377.754C218.441 378.991 220.898 379.609 223.633 379.609Z" fill="#1E1E1E"/>
<path d="M268.945 380.781L256.738 343.379C254.98 338.04 253.076 334.443 251.025 332.588V332.393H264.941V332.588C264.355 333.499 263.997 334.801 263.867 336.494C263.737 338.154 263.997 340.254 264.648 342.793L272.559 368.623L281.641 343.721L281.543 343.379C280.501 340.384 279.541 338.073 278.662 336.445C277.816 334.785 276.839 333.499 275.732 332.588V332.393H289.355V332.588C288.77 333.499 288.444 334.785 288.379 336.445C288.314 338.073 288.704 340.417 289.551 343.477L297.754 368.477L305.762 344.99C306.771 341.768 307.145 339.163 306.885 337.178C306.624 335.192 305.876 333.662 304.639 332.588V332.393H314.844V332.588C313.216 334.053 311.963 335.55 311.084 337.08C310.205 338.577 309.229 340.856 308.154 343.916L295.557 380.781H294.434L282.568 346.309L270.068 380.781H268.945Z" fill="#1E1E1E"/>
<path d="M320.117 380.391C318.62 380.391 317.318 379.837 316.211 378.73C315.104 377.624 314.551 376.322 314.551 374.824C314.551 373.229 315.104 371.878 316.211 370.771C317.318 369.665 318.62 369.111 320.117 369.111C321.68 369.111 323.014 369.665 324.121 370.771C325.26 371.878 325.83 373.229 325.83 374.824C325.83 376.322 325.26 377.624 324.121 378.73C322.982 379.837 321.647 380.391 320.117 380.391Z" fill="#1E1E1E"/>
<path d="M233.922 142C272.582 142 303.922 173.34 303.922 212C303.922 250.66 272.582 282 233.922 282C195.262 282 163.922 250.66 163.922 212C163.922 201.065 166.429 190.715 170.9 181.494C188.244 178.775 202.021 165.317 205.217 148.137C213.976 144.194 223.693 142 233.922 142ZM93.9219 140C104.434 140 114.404 142.318 123.351 146.469C125.936 164.415 140.002 178.648 157.867 181.482C161.758 190.193 163.922 199.844 163.922 210C163.922 248.66 132.582 280 93.9219 280C55.2619 280 23.9219 248.66 23.9219 210C23.9219 171.34 55.2619 140 93.9219 140ZM233.922 2C272.582 2 303.922 33.3401 303.922 72C303.922 110.66 272.582 142 233.922 142C223.875 142 214.323 139.882 205.687 136.07C203.651 116.888 188.547 101.608 169.446 99.3027C165.889 90.9132 163.922 81.6864 163.922 72C163.922 33.3401 195.262 2 233.922 2ZM93.9219 0C132.582 0 163.922 31.3401 163.922 70C163.922 80.5785 161.574 90.6084 157.373 99.5986C140.102 102.554 126.476 116.18 123.521 133.451C114.53 137.652 104.5 140 93.9219 140C55.2619 140 23.9219 108.66 23.9219 70C23.9219 31.3401 55.2619 0 93.9219 0Z" fill="#1E1E1E"/>
</svg>
