<svg width="752" height="117" viewBox="0 0 752 117" fill="none" xmlns="http://www.w3.org/2000/svg">
<path d="M86.835 58.7168C102.821 58.7168 115.78 71.6762 115.78 87.6621C115.78 103.648 102.821 116.607 86.835 116.607C70.8494 116.607 57.8907 103.648 57.8906 87.6621C57.8906 83.1394 58.9286 78.8592 60.7783 75.0459C67.9475 73.9204 73.6419 68.3569 74.9639 61.2549C78.5861 59.6239 82.6047 58.7169 86.835 58.7168ZM28.9453 57.8896C33.2915 57.8896 37.4131 58.8502 41.1123 60.5664C42.1824 67.9861 47.9995 73.8691 55.3857 75.041C56.995 78.6433 57.8906 82.6345 57.8906 86.835C57.8906 102.821 44.9312 115.78 28.9453 115.78C12.9595 115.78 0 102.821 0 86.835C2.06158e-06 70.8491 12.9595 57.8897 28.9453 57.8896ZM86.835 0.827148C102.821 0.827148 115.78 13.7866 115.78 29.7725C115.78 45.7581 102.821 58.7168 86.835 58.7168C82.6795 58.7167 78.7292 57.8397 75.1572 56.2627C74.3151 48.3313 68.0715 42.0139 60.1738 41.0605C58.7034 37.592 57.8907 33.7771 57.8906 29.7725C57.8906 13.7867 70.8493 0.827411 86.835 0.827148ZM28.9453 0C44.9312 0 57.8906 12.9594 57.8906 28.9453C57.8906 33.3192 56.9176 37.4653 55.1807 41.1826C48.0392 42.4048 42.4046 48.0391 41.1826 55.1807C37.4654 56.9175 33.3191 57.8896 28.9453 57.8896C12.9596 57.8896 0.000175244 44.931 0 28.9453C0 12.9595 12.9595 8.54165e-05 28.9453 0Z" fill="#1E1E1E"/>
<path d="M187.127 101.673V102.027H165.81V101.673C167.461 97.9519 168.552 94.1421 169.083 90.2437C169.672 86.2863 169.967 81.0294 169.967 74.473V40.3623C169.967 32.8608 167.225 26.6884 161.741 21.845V21.4906L182.439 11.8333V28.9329L183.146 29.1101C186.566 23.9714 190.694 19.9844 195.53 17.1492C200.424 14.314 205.79 12.8964 211.628 12.8964C223.185 12.8964 230.055 18.301 232.237 29.1101L232.767 29.2873C240.492 18.3601 250.045 12.8964 261.426 12.8964C275.578 12.8964 282.654 21.0771 282.654 37.4385V74.2958C282.654 81.3247 282.89 86.7293 283.362 90.5095C283.833 94.2898 284.924 98.011 286.634 101.673V102.027H265.406V101.673C266.939 97.9519 267.971 94.0535 268.502 89.9779C269.091 85.9024 269.386 80.7341 269.386 74.473V40.3623C269.386 37.6452 269.15 35.253 268.679 33.1857C268.266 31.1184 267.529 29.1987 266.467 27.4268C265.465 25.5957 263.961 24.2076 261.956 23.2626C259.951 22.3175 257.475 21.845 254.526 21.845C246.035 21.845 238.782 25.5957 232.767 33.0971V74.2958C232.767 81.3247 233.003 86.7293 233.475 90.5095C234.006 94.2898 235.156 98.011 236.925 101.673V102.027H215.608V101.673C217.2 98.011 218.261 94.2012 218.792 90.2437C219.323 86.2272 219.588 80.9703 219.588 74.473V40.3623C219.588 37.6452 219.382 35.253 218.969 33.1857C218.556 31.1184 217.819 29.1987 216.758 27.4268C215.755 25.5957 214.222 24.2076 212.158 23.2626C210.153 22.3175 207.677 21.845 204.728 21.845C196.06 21.845 188.866 25.5366 183.146 32.9199V74.2958C183.146 81.2066 183.382 86.6112 183.854 90.5095C184.326 94.3489 185.417 98.07 187.127 101.673Z" fill="#1E1E1E"/>
<path d="M368.805 98.6607C361.788 102.736 354.211 104.774 346.073 104.774C337.936 104.774 330.359 102.736 323.341 98.6607C316.383 94.5261 310.84 88.9443 306.713 81.9154C302.644 74.8865 300.609 67.267 300.609 59.0567C300.668 52.9139 301.907 47.0072 304.324 41.3369C306.801 35.6074 310.074 30.6754 314.143 26.5408C318.211 22.4061 323.017 19.0984 328.56 16.6176C334.162 14.1368 340 12.8964 346.073 12.8964C352.147 12.8964 357.985 14.1368 363.587 16.6176C369.248 19.0984 374.112 22.4061 378.181 26.5408C382.25 30.6754 385.493 35.6074 387.911 41.3369C390.387 47.0072 391.626 52.9139 391.626 59.0567C391.626 67.267 389.562 74.8865 385.434 81.9154C381.365 88.9443 375.822 94.5261 368.805 98.6607ZM346.073 101.319C352.619 101.319 358.221 99.34 362.879 95.3825C367.596 91.4251 371.017 86.3454 373.139 80.1434C375.321 73.8824 376.412 66.8535 376.412 59.0567C376.412 51.2009 375.321 44.113 373.139 37.7929C370.958 31.4728 367.508 26.334 362.791 22.3766C358.132 18.3601 352.56 16.3518 346.073 16.3518C341.179 16.3518 336.757 17.5036 332.806 19.8072C328.914 22.1108 325.73 25.2413 323.253 29.1987C320.835 33.0971 318.978 37.6157 317.681 42.7545C316.442 47.8342 315.823 53.2683 315.823 59.0567C315.823 64.8452 316.442 70.2498 317.681 75.2704C318.978 80.2911 320.835 84.7801 323.253 88.7376C325.671 92.6359 328.825 95.7074 332.717 97.9519C336.668 100.196 341.12 101.319 346.073 101.319Z" fill="#1E1E1E"/>
<path d="M406.574 102.027V101.673C408.225 97.8928 409.286 94.0535 409.758 90.1551C410.289 86.2568 410.554 80.9113 410.554 74.1187V40.1851C410.554 32.7427 407.871 26.6884 402.505 22.0222V21.6678L423.026 12.0105V33.9831L423.91 34.1603C424.736 33.2743 426.299 31.5023 428.598 28.8443C430.898 26.1864 432.726 24.1781 434.082 22.8196C435.497 21.4611 437.296 19.8958 439.478 18.1238C441.66 16.2928 443.841 14.9638 446.023 14.1368C448.264 13.3099 450.564 12.8964 452.922 12.8964L452.745 30.8821H452.215C450.8 29.878 448.559 28.9625 445.492 28.1355C442.426 27.3086 439.832 26.8952 437.709 26.8952C436.176 26.8952 434.053 27.9879 431.34 30.1733C428.687 32.2997 426.151 34.9577 423.733 38.1473V73.9415C423.733 80.9113 423.969 86.3454 424.441 90.2437C424.913 94.1421 426.004 97.9519 427.714 101.673V102.027H406.574Z" fill="#1E1E1E"/>
<path d="M467.428 102.027V101.673C469.079 97.8928 470.141 94.0535 470.613 90.1551C471.143 86.2568 471.409 80.9113 471.409 74.1187V40.1851C471.409 32.7427 468.726 26.6884 463.36 22.0222V21.6678L483.88 12.0105V33.9831L484.765 34.1603C485.59 33.2743 487.153 31.5023 489.453 28.8443C491.752 26.1864 493.58 24.1781 494.937 22.8196C496.352 21.4611 498.15 19.8958 500.332 18.1238C502.514 16.2928 504.696 14.9638 506.878 14.1368C509.118 13.3099 511.418 12.8964 513.777 12.8964L513.6 30.8821H513.069C511.654 29.878 509.413 28.9625 506.347 28.1355C503.281 27.3086 500.686 26.8952 498.563 26.8952C497.03 26.8952 494.907 27.9879 492.195 30.1733C489.541 32.2997 487.006 34.9577 484.588 38.1473V73.9415C484.588 80.9113 484.824 86.3454 485.295 90.2437C485.767 94.1421 486.858 97.9519 488.568 101.673V102.027H467.428Z" fill="#1E1E1E"/>
<path d="M589.579 98.6607C582.562 102.736 574.985 104.774 566.847 104.774C558.71 104.774 551.133 102.736 544.115 98.6607C537.157 94.5261 531.614 88.9443 527.487 81.9154C523.418 74.8865 521.384 67.267 521.384 59.0567C521.443 52.9139 522.681 47.0072 525.098 41.3369C527.575 35.6074 530.848 30.6754 534.917 26.5408C538.985 22.4061 543.791 19.0984 549.334 16.6176C554.936 14.1368 560.774 12.8964 566.847 12.8964C572.921 12.8964 578.759 14.1368 584.361 16.6176C590.022 19.0984 594.886 22.4061 598.955 26.5408C603.024 30.6754 606.267 35.6074 608.685 41.3369C611.161 47.0072 612.4 52.9139 612.4 59.0567C612.4 67.267 610.336 74.8865 606.208 81.9154C602.139 88.9443 596.596 94.5261 589.579 98.6607ZM566.847 101.319C573.393 101.319 578.995 99.34 583.653 95.3825C588.371 91.4251 591.791 86.3454 593.913 80.1434C596.095 73.8824 597.186 66.8535 597.186 59.0567C597.186 51.2009 596.095 44.113 593.913 37.7929C591.732 31.4728 588.282 26.334 583.565 22.3766C578.906 18.3601 573.334 16.3518 566.847 16.3518C561.953 16.3518 557.531 17.5036 553.58 19.8072C549.688 22.1108 546.504 25.2413 544.027 29.1987C541.609 33.0971 539.752 37.6157 538.455 42.7545C537.216 47.8342 536.597 53.2683 536.597 59.0567C536.597 64.8452 537.216 70.2498 538.455 75.2704C539.752 80.2911 541.609 84.7801 544.027 88.7376C546.445 92.6359 549.599 95.7074 553.491 97.9519C557.442 100.196 561.894 101.319 566.847 101.319Z" fill="#1E1E1E"/>
<path d="M648.93 103.445L626.817 35.5779C623.633 25.891 620.183 19.3642 616.469 15.9974V15.643H641.677V15.9974C640.616 17.6513 639.967 20.0139 639.731 23.0854C639.495 26.0978 639.967 29.9075 641.146 34.5147L655.475 81.3838L671.927 36.1981L671.75 35.5779C669.864 30.1438 668.124 25.9501 666.532 22.9968C664.999 19.9844 663.23 17.6513 661.225 15.9974V15.643H685.903V15.9974C684.841 17.6513 684.252 19.9844 684.134 22.9968C684.016 25.9501 684.723 30.2029 686.256 35.7551L701.116 81.118L715.622 38.5017C717.45 32.6541 718.128 27.9288 717.657 24.3258C717.185 20.7227 715.829 17.9466 713.588 15.9974V15.643H732.074V15.9974C729.126 18.6554 726.856 21.3725 725.263 24.1486C723.671 26.8656 721.902 31.0003 719.956 36.5525L697.136 103.445H695.102L673.608 40.8939L650.964 103.445H648.93Z" fill="#1E1E1E"/>
<path d="M741.627 102.736C738.914 102.736 736.556 101.732 734.551 99.7239C732.546 97.7156 731.543 95.353 731.543 92.6359C731.543 89.7417 732.546 87.2904 734.551 85.2822C736.556 83.2739 738.914 82.2698 741.627 82.2698C744.457 82.2698 746.875 83.2739 748.88 85.2822C750.944 87.2904 751.976 89.7417 751.976 92.6359C751.976 95.353 750.944 97.7156 748.88 99.7239C746.816 101.732 744.398 102.736 741.627 102.736Z" fill="#1E1E1E"/>
</svg>
